<svg width="336" height="200" viewBox="0 0 336 200" fill="none" xmlns="http://www.w3.org/2000/svg">
<rect width="336" height="200" rx="4" fill="#141414"/>
<path d="M67.1936 70.6951C88.5136 70.6951 98.3086 81.579 98.3086 100.343V142.021C98.3086 146.032 97.0112 147.322 93.1223 147.322H81.8846C77.8504 147.322 76.553 146.032 76.553 142.021V101.059C76.553 93.6116 72.5188 90.3163 64.3084 90.3163C60.4194 90.3163 57.2501 90.7463 54.2261 91.6062C54.0809 91.6062 53.7936 91.8918 53.7936 92.1806V142.021C53.7936 146.032 52.4962 147.322 48.462 147.322H37.3728C33.3386 147.322 32.0444 146.032 32.0444 142.021V84.1556C32.0444 79.4292 33.0514 77.7093 37.8053 75.8483C43.7113 73.4129 52.9319 70.6919 67.1936 70.6919" fill="white"/>
<path d="M183.256 70.6951C200.542 70.6951 211.057 79.0024 214.804 89.7451C216.243 93.8972 215.091 95.7614 211.057 97.1925L201.839 100.199C197.663 101.775 195.788 100.773 194.203 96.6182C192.331 92.0361 188.442 89.3119 182.391 89.3119C174.613 89.3119 170.724 93.0372 170.724 100.055V120.106C170.724 127.123 174.613 130.849 182.391 130.849C188.442 130.849 192.331 128.128 194.203 123.546C195.788 119.535 197.518 118.819 201.839 120.109L211.202 122.974C215.236 124.264 216.675 126.267 214.945 130.563C209.904 142.451 199.532 149.469 181.813 149.469C158.906 149.469 148.969 138.01 148.969 119.105V101.059C148.969 82.2977 159.629 70.6951 183.253 70.6951" fill="white"/>
<path d="M258.024 70.6951C280.787 70.6951 292.454 82.1533 292.454 100.915V119.39C292.454 138.152 280.784 149.469 258.024 149.469C235.265 149.469 223.74 138.155 223.74 119.39V100.915C223.74 82.1533 235.552 70.6951 258.024 70.6951ZM258.024 89.8863C249.669 89.8863 245.492 93.6116 245.492 100.629V119.535C245.492 126.411 249.669 130.277 258.024 130.277C266.38 130.277 270.701 126.411 270.701 119.535V100.629C270.701 93.6116 266.522 89.8863 258.024 89.8863Z" fill="white"/>
<path d="M131.638 50.368H123.334C119.987 50.368 118.515 50.7659 115.569 52.4986L95.5718 65.3847C93.6354 66.5013 93.345 69.2127 95.0587 70.647C98.3829 73.4289 101.052 76.8558 103.017 80.8859C103.85 82.593 105.935 83.27 107.594 82.3363L115.304 76.9906V141.854C115.304 145.981 116.779 147.312 120.794 147.312H131.638C135.652 147.312 137.127 145.981 137.127 141.854V55.826C137.127 51.6996 135.652 50.368 131.638 50.368Z" fill="white"/>
</svg>
